<mxfile host="app.diagrams.net" modified="2023-05-17T05:53:06.574Z" agent="Mozilla/5.0 (Windows NT 10.0; Win64; x64) AppleWebKit/537.36 (KHTML, like Gecko) Chrome/113.0.0.0 Safari/537.36" etag="YT0bs96Yywupqo4jw6ZD" version="21.3.2" type="github">
  <diagram id="6I0OCvxSQrVGMHxT2VVA" name="Page-1">
    <mxGraphModel dx="1434" dy="764" grid="1" gridSize="10" guides="1" tooltips="1" connect="1" arrows="1" fold="1" page="1" pageScale="1" pageWidth="850" pageHeight="1100" math="0" shadow="0">
      <root>
        <mxCell id="0" />
        <mxCell id="1" parent="0" />
        <mxCell id="dKdSaXE48SgPbhcamS2K-30" value="" style="whiteSpace=wrap;html=1;strokeColor=none;strokeWidth=1;fillColor=#f5f5f5;fontSize=14;" parent="1" vertex="1">
          <mxGeometry x="1130" y="170" width="230" height="530" as="geometry" />
        </mxCell>
        <mxCell id="dKdSaXE48SgPbhcamS2K-58" value="Technology" style="text;html=1;strokeColor=none;fillColor=none;align=center;verticalAlign=middle;whiteSpace=wrap;fontSize=14;" parent="1" vertex="1">
          <mxGeometry x="1269" y="751" width="240" height="20" as="geometry" />
        </mxCell>
        <mxCell id="dKdSaXE48SgPbhcamS2K-59" value="Application" style="text;html=1;strokeColor=none;fillColor=none;align=center;verticalAlign=middle;whiteSpace=wrap;fontSize=14;" parent="1" vertex="1">
          <mxGeometry x="1269" y="541" width="240" height="20" as="geometry" />
        </mxCell>
        <mxCell id="dKdSaXE48SgPbhcamS2K-60" value="Business" style="text;html=1;strokeColor=none;fillColor=none;align=center;verticalAlign=middle;whiteSpace=wrap;fontSize=14;" parent="1" vertex="1">
          <mxGeometry x="1259" y="389" width="240" height="20" as="geometry" />
        </mxCell>
        <mxCell id="rCQuYXP2aKoJk5EWpsbV-16" value="POD(雷达独立应用uat/prd)" style="rounded=1;whiteSpace=wrap;html=1;verticalAlign=top;labelPosition=center;verticalLabelPosition=bottom;align=center;" vertex="1" parent="1">
          <mxGeometry x="630" y="430" width="200" height="171" as="geometry" />
        </mxCell>
        <mxCell id="rCQuYXP2aKoJk5EWpsbV-18" value="apisix" style="rounded=0;whiteSpace=wrap;html=1;" vertex="1" parent="1">
          <mxGeometry x="650" y="450" width="160" height="60" as="geometry" />
        </mxCell>
        <mxCell id="rCQuYXP2aKoJk5EWpsbV-19" value="前端" style="rounded=0;whiteSpace=wrap;html=1;" vertex="1" parent="1">
          <mxGeometry x="650" y="531" width="160" height="60" as="geometry" />
        </mxCell>
        <mxCell id="rCQuYXP2aKoJk5EWpsbV-21" value="" style="shape=image;imageAspect=0;aspect=fixed;verticalLabelPosition=bottom;verticalAlign=top;image=data:image/webp,UklGRuxJAABXRUJQVlA4WAoAAAAQAAAAdQIARQIAQUxQSD8kAAAB8Ib9/yq12bb9IW5196PuPfw46u7uPazu7u7u7nbWexx192bNDO4WCIRASNCggw8j6/uiwKz1//9+v/WH801ETICaLr/hVZ/U9fTWf3H9ZvZvzmmvlbX3rww9/Nfgs+nbCUyY+uh3dm/OjT2YuPywgHPKICYdO9fmbVeNyf/fnCBzFdK+2979sQ/pZs0LLqe46eF8W7dFO9L/IiOobNADD4e3snTfwctzg8qr8PRjO3csPO1eEEzWGfEmubmV+9kbXBRMboDHD9m4nV2PyoNJiVd1Nu4eeL1rENnM9Qp/tHBLPLsriFwPzx+wb7+D55VBJM+7Svt2q3fYKnhskPIOu1q3Eh9uDh5XwMe7bNumrg9FwSPkR6Vtux4+upsEjXUSfmBLy5bnB64NGhfC15vt2gYpX3KCxo/+FNm1K+Brav1gscaYP+4mVi3kDy4LFmfD52tt2toJnxYHi6/9yrFpF8Ln+NpBYv6IX8n1LdqPfuH8IPEP+H6ZPVsU8+37IPGJf4vt2dnwPbYoOMwZ8C++ljX72j+cGRxOgobn27L5wxp8GRw+0OF7W/YPaDg8LyjM7NUhttCSfaIDTg8Kx0DLM+3YnAEtPgoK/6fHl3bsJGjZPzsYZHbqMTzPin2gB04IBodC09Nt2MxeTd4LBi/r8pENOwaa9swMAhmtuvTPtmD/pwuOCgL7Q9sT7Ffmam3eCALP6vOe/ToU2nZkBoAV+vTMtF4v64OD5fd3aHyU7cpo0ehF+T2m0xu2a39o3JwhvjqdOjIt17M6YV/p/QFaH2y5Vmj1tPTu1+tFu/V3aN0ovSq9mu3WY3rhr7LbBZrva7XqNHtEdnfq9rTN+gM0Xyq7Ct0abNb9umEPyW0F7f9qsSq1u1dyN+n3iL3aBdrXSK5Qv6X26k79sK3cNnH1wx7WqsKA2+V2DQy811ZtCQPL5JZtQo2tuskEbCG19ZMmYBtLVWjEDVK7FEbebqc2cY3Il9qvZpTZqWtgpLuxzNaOm4EtrFS2GbhKZufB0Bts1PpJQyIy+86UfBt1KQxNriexRTFT3I0s1K+m4GKJ/QfGXmWf1oob87PEvjAnYp/Og7HxNeU1b9ic5LrW6TtzcI68ToPBF9umhTGDvpHX/0z62Tb9BwaPLpTW7H6T4mtapi9Mwr+kdTyMPscuzRs26jNpvWvWN3bpNBg9NFdWM3vMGl1glf5nFk6R1ZEw/F82aXa/YR/K6nXTPrNJx8Pw6GxJZXaYNjTXIr1rGo6V1EEw/hR7NLPHuLcl9YJ5H9qjI2F89ww5ZTSbF51ljV43D4fLaR8QeKwtyuwg4FU5PUXB27boIBDYnimmBgq6ZliiFyjAAVL6C0g83A5lNJPwnJQepuFVO7QPSFwlpaU0tGdYoadowF4y2h1EHmCFGoh4Qkb3UPGcDfoLiFwuo2oqVtqgh6nAnyS0LcjcywItJeNBCd1GxxP2Z3eQWS2hUjrq7c89dGBX+WwBQv9kfaoJuUs+11PyoO3ZFoRWySePkmrbcxsl2Fo6G7uUYFfLU0rKLdK5EqTeZXe2AKnF0gnTUmV3rqfF3Uw26yVpwdZWJ48WXCubi0DsLTZnI5eYHNn8RE2xzbkSxKY2lMyacWrczSxOmBpcLpmzQe619ma9JDmOZL6mJ8feXARyE+vKZeEoPakNrc1P9OACufwTBF9ua9aME/SDXD6lyLE1Z4PgsTWkMneIosQ6luZrinCmVE4GyRfYmYWjJH0plQ9o+sHO/BMkjyyQyewoTWNrWJlPacIZMjkGRJ9pY+YOEfWxTN6i6ksbczKIHpwrkRndVI0ssDAfUIUTJXIYyD7DvsyOkvWeRF6h62P7cgzI7pslj8x2ugbmWJe36MJR8tgfhJ9oW2Z0EfamPJ6l7D3bchgI75whjlWU9c2yLK9QhkOksSdIP8quZLaT9pI0HqftTbuyP0hvzRDGcto6Z1iVZ2nDvrL4I4g/xKqsJO5pWTxA3Us2ZU8Q3ySLaupaMyzK49Thb5LYBeTva1HqyXtUEnfS97Q9+SPIXyaJSvqa7MkD9OH3ctgaDP7NmlQzcJ8cbubgUVuyCxiskkMRB8tsyZ0cYCcpbOZygN9bkkoWbpfCNWDxPjuyNVgsl0I2D1V25GYesJUMNkzxgJ2sSBETN8rgMjB5uw3ZzGWiQAaLuSi3IdeASXdTCayb4AJbWZBsLnCVBM4Hmzfajw1TbEQk8D0fBfbjMrCZ2oC/Ncb4cDe1Hov5wCX8/QeMXmU71kkw8gt/X3ASsR3ng9HE2twtGOEktYHl+J4TnMvd6WD1Eruxxhgr33L3ES+/2I3/gNXYIt7mDvKSWNtqfMEL/sXbCWD2XJuxYISZz3h7l5tvbcbpYHZ4Pmez+riJLbIYH3GDUzk7Euz+y17MHWTnv5y9wc9n9uIEsDswh68ZnfwMz7cW7/KD4/g6GAyfaitm9TH0Nl8vcvRfW3EkGO6ZyVVGK0f9cyzFGxzhcK72AcvH2YkZnSy9xtVTPL1tJw4Gy6szmWriqWemlXiRJxzI01/B9OE2IqOVqed5eoSr12zEPmC6JYOlZVytzrQQT3GFvTjaA2wfaCGa2HqCo3v5et4+/BVsN3JUzVdLhnV4hC/8mZ8dwPhe1mEZYw/xcxtnT9iGPcB4LT9lnDXahns5w27cbAXW/2wZqlm7m5sbeHvILmwP1qu4yeet1i7cxhu242VTlzfsZhXKmLuFlyvB/N02YSswX8JLmLsqm3ADd9iSkw1S3GE7i5DP3nWcXAz2b7EHm7rs5XLyM38l9uBKsO9uzMfaCf6wpTUI84fL+TgHArzOFmyQEoDDxzcSyLUFF0OAyfW5WBSTgLuxJfhZAriQi39ChJfbgbUTIviRi09l4NiBcyDC+Fo8zB+WQXI9K/CNDHAWD6dAiBfagEUxIXzFw4dS+NEG/BNCHF3IwZx+KcTXsgCfSgFncHAsxHhW8Js/LIaPOXhLDl8Fv1MgxqF59M3skcPowsD3oRxwEn2HQZBnBL05/YJ4n75XJfFx0DsWgozOpi5ztSSG5gW8tySBo6k7AKI8KdjN7BHFm9Q9J4v3g91hEGX3TNoyWmQRnR3oXpUFDqFtTwjz6CCXuVoYL9P2uDTeDHIHQJjtmaQ1SqN7ZoB7ThrYj7I/QZyHBLeMFnE8Q9mD8ng5uO0Jca7KIKxWHu2Zge1xeeBvdO0Kge4X2BoF8ihdd0nkmaD2Jwh0OV2VElmVEdAelAj+QNV2EOnfAlqtSO6n6maZPBrMdoVIa6gqlklDMLtLJtiZpi0h1D8Eskqh3EHTtVK5P4htB6GW05QjlZogdrNUsA1FG7tSwc4BrFgsN1J0GcR6R/DaEmItpGixXMqD17Vyweb0rJ+UC7YJXDmCuZqeCyDYG4PWxq5gsuj5QTKFQesyCDa1ETVrxSWDzQPWYsngEmrOhGivDlbrJ0XzCzVfyiYrWF0A0SbWpWXhqGxSGwWqH2SD82g5HcK9JEitFRfOd7R8JJ1fgtSZEO7YmpTMG5JOYt0A9aV08G9KToR4zwtOC0fF8zkl78nnu+B0OsQ7soCO2VH5jK0ZmD6SD06l48jcGvl+WByQw1U14q1+lI53l4xBvBUIyBHI1xmeR8WsXkTkk4gGpGL5lCVwChVHAsgSD8LBaHhEPB2rgf9S8TqAkVrxlASjLEg3Xg6gfzYNM1YDwMo+6cQGA1G+eEL47XE0HIxxC13hIBKEYoPSycG4b9Pw4nhwpFMYhHIg3Pqh8XpmUpDRMkGqSDjDIwEoVzj9jZjwcAr2wcS9zbJBdvBJRIWTh4lfpeCpSaBmVDb5wScfsnUwyY5MAlZMBhHZDIwFnmzZlCYngwPN+wsmHxYNcoNOqks0bV2Y9PPmPZxGrFo0OUGnEJIdq8LkmzOMq0sDLT2S6UsEnIhowkh3L9P2QNrFKcEgP9i47ZLJQtpPmHZvenAkkx1sSiDY2pH0Gkyr9sAtEExnKtCEBRNdCQ//ZNZ28DLaJBcUBZpmubgF8PJBs27zBHXDcokEmXLI1YGnS80q9QbZcmkLMiG5FKW8wW4mbQmvQ2JBaYBZIZbmXnh8t0k3eBavFEsouCyBVEdr4HWVSfmeoa1TKquCiyOWCLzf1pxNXO9QmhQKKgPLMqmE4eMt5lwJPx2phIJKLYRaE/Oj2JywL8gTSkNQcYTS0wxftzBl/aQ/Aw0yQXVAWS6TVBH8vc6Ui+Bz/aBMnGDSDJkuhs+5pvzkF3JkUhdMHJkUuH6lNjZj7bhvcESCukBSK5KmKHy/3Ixz4H+iXCROEGl3JTJSC/8dM77RAKs7JFIfRBxINAsaJtczYVFMB1QkBIKWAFIlkRC0vMCEf0LPkESc4NGVEkjVmB4/mPCpJsgRSE3wCEGeXW3QM76mfvOGdBmql4fbETjK5ZEsha5n6XcytG3sFwecoNGXkIcDbb/S70N9kCePyqARhjjzoO/oQt1m92sERxzJ7oBRIo7Gfo1whm7HQudkqTQQDhYDMWkM1UPnj3V7Syt0tUmjLFhEIM0caD00V6+ZPXqhakwY8WigKJSGA81P1Osw6B4WBsJBYmRYGBUJ3d7X6xXtkCWM4iCRDVmu7oDu0dk6ZXboN1Iri9HBAJEni0Q59D9apwNgYFNUFMgKDmMDsgjBwDd1es4EFLiiKAgOuRBlDkzsmqFPRrMRcEQxNBoYckRRP2gEDtFnT5iZKpYEcoJCok8SAw0w8yV9HjcEPc2SyAsKBZBkHgxtz9SmwRTUxATRHw8IWZJwYOx+uvwR5kYEgbxgkOoURGnSnGd0ecAghAWRHQyKIMe2Tpi7UpelJo3WyKEnGQgicohXwuS/6bErjG7uFQMKA0GbHMIw+lE97jILRSkxZAWBMogxG2bX61FpGBwxdLoBICSGumHD8HsdtoXpbqEUUBwAVkkhugKm36fDzcYhulIKYflVQohuAYyv1qHIPNSOCKFVfo4UFoPAnf3bAhRmCQHl4msQQnGKgjv8u5YEhIQQkl4NZNjSAwrL/cuhYaxKBk3Sc2QQqwaNW/u1cYoGtHWJAEuEVyeDCIi80a/LQGVpUgSO7JZBhBFQWeDXYjLgiGC57BwR1IyS4W7mz3pJOpAnASwV3TIJ9DaDzqv9OR+E9jdKwJFcCwSYKgKhWf58TwnqhwRQKzlHAg4oTW3ox5pjpCBHAKgXXI0ACl1ScIkfZ4LYkAAcuXW4/K3sA62/+PElNfFy/urk5oD9kVoQm1jHu4Wj1KBjNXtoE1slf1kg91zvTge9ZQn2HKl1J9kLg95vvfuIIITYq5ZaCNwvGSNobA2v5g5ShFzu3E6hlXHX3QqK/+3VCSB5sJ45hGQWjTOXLAHJn3v1Hk1oGGCuQmYRMO+A5pEF3syOEoU85pK9IitiLs8lCqd6cxTIdnhDWGKDo7yt6AfV//XmDbqSZbyVSiwLrA8tA9kDc72Y0UUXOttYG+sXWAFv2SD8OC8OBuWVcc4QkdfoEGshUP6OFy+ShjBrhfLKAecVcdL6ZqWX2U4bsjgbGRJXLmed7aD9iPT2BfHDdYwhW1rxKGOJMhD/WnpPU4emKGP50soD4yFQ3zkjrZXkId/lazAmrGzGckH/gen8FQw6fCFXVskevpYPMvB8Oo9wkCq2JIVge6ABDLZmpFHPAbpb2IrGRRXhKxcs7j25PcBjdYwr5EvKXc2WAx6fnNy9TCCLrSxJlYDrsgQTTZOr4QJhrrqTggpz1d4JLv88mR3B5uhSplAkqFam4pVg86HJ3M4HmnuZisipHEyHwOeyyZQxgsIUTx2umEJMZYPT3SbaGqw6PKFUTE081Q2zcvdEN/DiFvIUllIVWI6uAKtLJsrnBX2rWGqRksOSmw9mtx9vM5cZLB3lCBVCWs6SA25vHe8qsJvFUkhGteC4JMVOyXgRfhDmqElGDket3eB3q99smGJobAlDqBZRLUNjS8Dwdb+5GBy3djPkSGg5GI6A49zf/MwSSlL81EvIYSgLLLubKrVOgic4/KBOQLX8LB3lCVcodTaYdvP5ceTTCnb7VoHpxUq9zRWiK9ipl4/DjlsIrmNzVCNbqBvmBqvEs4QdB3zvsykYz2bHkU5nipvCFGO3nsAZQtwslU4IzK7qA+OfXchavJIZt0045cyMLgXn2bewhvZOXuDIpifJTASsL32cN5QleKmSTRi8hsF719PMIcRLqlM0JbxUx5jrvY075LKCkGT6x1jpbgHzyy5kb6CBlTLJRMBpqhjc55zIHpYPcpLoE0whKw7Y/3xr/pDLCSJyGRrhJN/l727Vwh8cTorlkg1Gm6Lg/yD1gQASZYzEBsSSz8hwHfiPz1fnCgCd7XwgSyqjg4xkQ4AhpRb0CwAVcT4KpJILPkOQ4L+UUs9JACE+hoeFksNHZVwCnXOUUjuLANlsIEcm8SgbnW2Q4EPqt2+LYHgZG3kyyQeXyTJIsHvdcTbokwBW9HMxEBNJFhsORHieGv8SESDfZQJ5Ekl2c5EHEeZmTJD5pQjgcJEjkWIw2TAggp5t1cQLSkWQLGGiLyGQCBOD9ZDg2P5qspu2SgDdrTygQB5uBxO5EOHZavJb10oAS8Z4yJJHKXh0IMH4WSrdtRdLAGEeOlPiCPFQlpBA7wEq/VmvSQBZLKBYHM0sdHRCgLU7KE/P6BfASC0LEWlUgsN4OQT4v/nK49/l84eVfRy0ucJwWAiB/+jpyvuZz7rsodBlAGXCaOIgG/znbaV8PaiNPTgchGRRDQbrh9hzn5mhfF7vG/ZSRQw0y8JhoL8R3LceqDS8NcYcepvpQ5Uo6hnIA/dfrau03KOWOdSM0udIog70O2A+drPSdf5/mUOEvkZJOPSVJplburvS+LQobwiTh6WCWEZeWxd4/2C+0nrLXN5i1eQ5clgF6seqwHr0FKX7jKdSnKGlh7o6OTjkhcF6zpbKwANaOUNxijjUi6GGuixwnnpyhjJy3a84g0OdI4U2l7jaEc5a9lfG3hRjzC0grk4KDmiPrgTjX6yjDN69hi9EV9CGZiFU0uYWgu/RG5XZ897nC3XDtDky6EzR5oDv6t2U8af0sYVs2qplEALpRSm+3punCNwimy2ESHPbRVBGWnMvuO47SdE444kUV/FKyhCSQF+CstEacJ21uSJzv2am0NZJWYUEwqA8AqZTj81QhK7zOVMoTRKW7BJAMWVhMN28ryL2+lGe4BCGMH8DMcJqYkx9trYid9dqnpBHWCl/WaC7pxksj16nKJ73Dk8DDXTFo+wV0JUqBstLdlFEn9TLEeoHyUKEu+FhuhaD5bfnKrI3j3CEHLqKuMsB2QUuR70nKMozH00yBIes2CBzeWQ1RcFweDNF/D6rGEqUU4Us3mIDVI3Ugt/kI5mK/LU/5QerO6jK5y0PVGeB35V7KxavHWEHFQmihkZYy6YqBH6/W0sxuXMVOwgRhVzOEn1EVY2xM3Kh4nPuW+wgJ3gUguauNnBbuZNi9fgebobqaeofYyxCU7IU3L45RzG7WZgZNPaThHy+Up00OWC25zjFb+ZDSV6QR1M2XyUgOQ/MOpsqlvdeyQscknoTbIVJauznJflgpmJ6rW95SZZShEKu3DaKhurBatOeivELRjhBVxtFEa7KQXEOWP1mTcX6ThWcoGqMoM4UUyGKQuB0+HzF/Zw3OEGYIJQy1UxQRYKT8h2VAI/tZgRZBIV5qgK9qzvA6GtzlAg3cRgZqaWnjSeHnkQ5+Ow6Rkkx84EkG2iKkoMKlhrpCYHPxZsoQe65gg0UuOSEOFoKcnPAZuK+TCXKNb9iAw45KzlyyKkfZGPF35U4zxvmIlVEDaoZqqNmoAFcfrmGEugO5Uygp5kah596UJsHJofOUTKd8yoTqIkR08CPQ40DJst2UGI9uosHRIhBHTu1xJQmmXhlthLsxr/ygAgxDjfNoLWtEyx2HqVkm3FvgoXRGlrquQnRMlYJFn/ZSIn3b40coLmXFDQxU01LGBwm7slQAl7jCw5QlCLF4aXdJSUbHDb8VQn57CEG4JCylJcQKK0b5uCzRUrM25cy4BZQglZWKijpawL9Q2cpSc9+mT5EV1LicNKVJMQtAP0l2ylhH9lJHmpHCFnCSRiELgb57ouzlbg3+pk8ZBGSWs1ICSFFKfJWH6EknnFXnDqE6UCIj2icjpYeUP/Thkrof2mgbqyKjnI+IiAzVg3i43dmKLEv+pQ4tHWRkexho5COMIhf/mcl+jMHaUNpkgqEuRiMkREB8Z8sUsLfrpg2OGQUc5ENKmtGaRv8j5L/rBdc0pBHxViUiXwqeptBetG2KhAevpq0/kYikMXDyBARqSJQ7j43SwXEDX+kDPVDRBTykAsiHVDecZgKjhl3xAlDDhGjQ4IqcCn7YQMVKP9cTxhCNCCbg7F+Glb2ge74bRkqYC78iLB4BQ15HOSDxJFa0L3sTyqA/nuALHSsJmFwlIEsGrJA9/8WqkC6TRFZKE9QgDz6Er0khEH2wD9VUJ31rEsVQiTk0FcECpeMkVW4tQqwh3ZQhVwKonHyIhR0tYJo95lZKtBu8D1Vg/UEoIC6VCcByRIQ3X6ICroZt47RhIYBArKoKwWBDoj+bn0VgP+4jCbkEdCdJC5MQJ5L09jNKhgv/C9NcMxDMW1um3kr+kFy3R9UYP5nP0nJMvPCtFXA+KFlIPmDBSpAb11AETrbjOtwSQuZlw2K+89QwXrmUy5BqIybhjLSVhoXAsX5v1OB++A2ghA2LkxZNUyviBPkPjlTBfD1vyUIWaa1UOaY1tkOetsOUgH9pjF6husMQyVhDYYlykDvN+upwP77WnLQFDXMoasOhodAbuxGFeQXvE8O8l2zmuhyDMsFuUv3UAH/9H5q4JiFGrLqzVo+SM5781Xg/10eNalisxyqmmD0QAOIjZ6mbODMJ1K0oLvFqHqqHLNyQWzuVsoSHtRKC6pjJqGeqBqjHNCaemymsobrfU0LIkY5NLXC5LIELa0HKKt4Q4wUREyqoylkUnsnSP1qXWUZ91hKymiNQVhJUpVB8UpQGrtO2cf571CC5l6DHIpWpwwKgdKa3ZWVPDVKCApT5lRTFIK52aD07fnKUm6ZQwgcc9w2gsrMqRsmpO8UZS9nPJqiwy00BiF6epLGRFeAzuwtlNU8oIUM9K0yppKeMEx180Fm6pEZynKu+yUZqB0xJdVJTrExDshs3l9Z0GtHqUCWKQhREx0zpSRFxufrKCu6WzUVCJtSSk0WDG3tBpGjVytbOu8tKsaWGJLoJabAkNgSELlkV2VRT+6jAa3dZiBCy9CoIWEQ+eY8ZVW3yKYBJUkzimjJgZlZoLH3JGVbZzyUIgGOGWP9pOSZsXSUhsjmysLu10yCm28EsikZHTSibxUoTD44Q1nZdT6nANEVRuRTkgcT3UJQuGpfZW2vGiUAy4ZNGBkmJMcIBxR+urayuLsuIQDZJiCHjnjUhMIUASNXKrs77w0CEDIhl44CGLiqF+ZX7aKs74m95sUrDRiIkZFlwOhSmP/6XGWBN48Yh/ZO/ZBPRbLbgAiM7zlB2eEZDyRNQ1lCv2wqiqF/GMaHN1PWeJ9VpsHRry9ORFi/6phpyfsylUVe+1PTkKsdCmlwO7TrboHhK/dWlvnyEcMGG7SL0FAO3VPFMPzjtZR13rnSLCwf1K0rSUJIOwdmj1ymbPTcV81Crm4oIaFFt3zXrIqdlKU+vscoOLqFKaiC5k1RGP3KHGWtNw0ZlSjTrN0lwNFsuA4mdx+nbHbmvUmD0NmuFyoIaNIsGyY7myrLvVeTQaiM6xUybyn0DsHgxD2Zynqv9ZFBCOnVbJ6jV2XcoBV7Kit+6bA5yNYKS4yr16qzDeb+b01lyXeqMGd4mVaOafXQOVkGY4cvVvZ8zsvGYEVUp0bTHK0cGFu+o7Lqx3abgnxXI9QaVqdTHox9cY6y7JssNgWOTo5ZK6Fxw4ApXcco+555V8KQZIlG9WY5Gg3Ww9BfN1ZWfs8VZqC7VR80GlWtUS7MTNyZqSz9mv81A0vG9HFManP1cWBm49+Uxb9oyAiE9ak1KQRtyxNmfLKGsvo7lBmBLG3QbFCFNh2rYeLQOcr2z3nBiJFabRxzOlO6xCtgYun2agrw6C4DsLJPlypzwtA1BBOfm62mBDf+xQAUupq47caU6pINAzuPUlOFGXck9IOjCUKm9CY0qR8y4OeN1BTi3xr1SxVpUm5KBHr2N0L7+G0ZakpxjY+0Q2+zHskuQwo1yYP2DX9VU45nD+mGmlEtEDajf0wPB9r/b5Gagty+RDdE9CgxIwtaliZ1GzxTTU3OftbVDGEt4n1G5GvR1gXNi7dTU5ZHrtYsVq0DIiYMj+gwVgW93WdmqynMjX7SCy09OhSakAsdw9B79RFqajPj1rhWKE5pEBugKQt6/7ihmvL8y3Kt4GiAHP1iAxrUjmgVvyVDTYEu+q9WboEGefrlw//oSuhc/2c1RXrmoEaINvk3PKJdtn9uIXT+YJGaMt22WCPUDfuGXN3iff450Hjg32oqddbTrj7I9i9Ht0L4XpTSqGgbNcV6eIc+CPnWH9Ms4tuqXmjrPjlLTblu+IM+8Uq/UKBXssuv0Rpo23GYmorNuCmuC9o6/crSqxR+R6Dt9xuoKdo/1euC0qRPvQmtwn6FoevYjRlqynbh+7rA8QlFOrntPtXEdFn2RzWl+68BTZDrU0SnCvjb0wxN31uopni3KdRkoMGfzpRGIX9SxdCz/59q6nfWE64WqB/0BWUaNfuzGHoWbK2mhA9t1wK5/oT0qYavBa4W7mOz1BTxBt9pgZAvba42ji9NUejYdoiaOs64YUyHRLkfqNSm0Y+RWuj47fpqSvmPdRpgdYcfIV3q4GcWNBy7Tk01L3hHA1QkfFili+NHGBrW/kFNQf+j3z+EfECNJst9qBrT4O0Fakp663z/kOODo0cjvO9qg+/RM9RU9cxHXd+G6r1r1MPxLlkC3/N+p6awD27zC439nmGZFku9c+B36pGZakp7/W/8Qp53jg7N8DwPfrcepKa8r435BMezOh0czxr7/fp6PTUF/vtan5KlXqFJgyqvhurhb+xqNTW+4C1/0NXmleNfu+tVDvxduoeaMj896guqxjyq8S8Mj0Pw9835agp9qzxfEPYILb6Ve1SR8CV6mppan/lQyg9keeT41ZX0ZnUH/MzZUk25H9jqx0itN5V+heFpohw+ph6cqabg1/3KBzRFPXE7fCr2JgQfWw5QU/RXxbxDgesFQv70xT3JgY9frqum7Hev8Q6OJ2X+ZMHL+kHvRq9UU/nz3/AuVeRFstuXAi8GGuB59W5qiv/UPq/Q0+wBIn4MxLzIg+evz1NT/lvmeIWamAdFfmTDQwde952spgPOeCDlEcIexKM+5HlQmvQqews1TXD/Fo8QSQ9Z3o0Mp9fWCW9T981Q0wbX+cKjWE16+d7lIe2xKnjbvJ+aVnjFqCdo7klrdNCznPTC8PbzddQ0w92qPUFRKh3kehXrTysbno5epqYfznvVEzi6FCDdumFPluyqpiWe3OuFW5DO0IhHWen0NcHLV+apaYpbZHmA6Mo0kOdNojcNtwAe9p6opi/OuDeZHmpH0sj2phhpLoaHkc3VtMZ9V6WHrDSiY56E0yhKpZe8Z4aa5rj2Z+khPDkUepHqnFxLD9JetY+aBnnpSFpjVZOLeFGGSceqkfana6tpkbtUpYO2rkn1JD0ITS6MdEcuVtMl576cDkqTk0FJem7bpCJIt3JnNY3yxJ404EwqnF4VJlszms6Lc9W0ys3CaSBvMqtTaTmT6W3G5HuOV9MtZ9yVnFx/4yRQntaqSaSKMPnQZmoa5j4rJ4X6oUmE0qnBJB1MOnlnppqWudYnk0LOJFrTcSZR4E6qaS81bfOikckgNBGWpNE40co+TPajtdQ0zp0rJxOvmCg0uXpMOFKLSQ5fqKZ3zn1hEuhYPUHT5JyJsjDJip3UtM/juidCeWI81E5q2QRhTPL5OWoa6KbORAhN4EymCeMvGZuo+1g1PTTzjsQEyB1v+WSc8bpaMeHiTdS00b2aJhisHwfLJ1E9TrIE4yduy1TTSNf6aDw0DIzjTNSCcR2Mv2JPNc30/OFxkDdO7UShcfLd8f67ppp2umP5OHB+g5UTVPxmRT9+O3Semo4659lxkmW/ccbrcAEMLcNvy3ZQ01SP6QKAzjYAS8YLA0AOfvvMHDVtdZNfAaAyDrit45QCCAFA19FqOmvmrQkAIQCh33QngYo4gF82VtNc/94IIBso/00E6GwHErdkqmmva34IDNch1QmgCIlyoPFvalrsuUNoiiIMRONwgA/WUNNkdyhFvlsCZCEXQ2er6bOzn4aT6EH+8sGS7dW02qPaiyODXcufnK2m2W786S853x+ppt9mXPToRur/WwMAVlA4IIYlAAAw5ACdASp2AkYCPjEYi0QiIaERiWSQIAMEsrd/Ld6zj/lh3gD8BXgPNUy5fAPJT4ADzg4e/lP4Qfon6BBGec/AH6AfxP3BqAaQ1kX8n/Ar9Cv6r56f8Bxmv8X/AD9AP7Fa8GWFfhn4Gfob0mGoS6j9x/sn94/1X7/+dtfPqH+D/X/+3f+z/W/QHYf5p98v61/8f8V8gP+B6b87+eD4T+If5H+5/5r/i/3L/////7pf7H2DeYJ/D/4d/wf9J/Wv+V/Uf/////Cz5hP05/dD3bP8h/vv7179P1U/4H+g/1X//+hv+Yfx3/af6/91/mX/tn/r92r9hvYH/rX98/6v5//Kl/kv/d/wf3///H2U/s9/9f9r+//0B/zz+u/+X9uv//8gHoAf8z//+5b/AP3/9v/rN/u/xz/S/7B+Pn7D6VfoXeAe8pnz6B9e/sL0ffunhTtV+rm+nzS72XeAyCvin+Pv4P5rP+77VH6P+/Hnu+avUy/m3/X/4fsif//2bftF7DH6X/+AWD6gDHvd9wHL7I0m4Dl9kaTb/1ppEaCMUEPqCH1AGPabUBRF1WCi6LZjKwUXRbMZWCi6J/DbT6gZBJ4zvZ0Qzl1qcfdX8Zeuajcj09yWxFVfnuS2Iqr89yWu8jicppmAbZX486Q8uDgyCHzl7XDRC3G61jdYQsvF3FsNpJDvbCYo74S4cLJdaaoaBI1JtsT4gkak21/Nsk28pCZijAT7RAJXqG05dOaVL//huvzckSo3X5uSCGTuG6utWIxJLMXBuu1cmheu9EvsjSbgOX2RpNs/i4awO6bP1caEkfTB+lcMp/eNgfgOX2RpNwHL7ItQC6kdpw4OyFWsgoi8ERx2brCvqM7jdaxutY3OGQPqAPCbPqAJkDRIlEPqEHSFI6sFF0WzGVgoui2Hviej/cmsCna3G37pbxkLcbm6zvAvy3G61jdaxCALRC2jDDFw9Ye4FKiIfUAg7qzcBy+yNJuA3atUmiFszsw+A7LSUfO43WGTxMg0/2yO6TbYnxBI1JtbyxCK/Da4ZSY8d+cN+rt1kbtSbbE98F2Eo58UIq9CUay4drfBk22B8Bj3sQn8IV15HFlBJl45HI5HI5HHwlrkF4PGLnredYPatJxi563nWD2YRulE54aD/Xe10F0PJ8vl8vlp64v1MnwqEU0eHEkZkIHfccR6y2jdaw96Q9OoWDQc9cJLG54PA5i6TXoXSe4vOBjCRfSwmHRIo/S3s78cyjUEPpqdbyZrVjdaxueN/R/hJY17WDoRefbJkT+1rC03Y/Woe9dHaGiFcjobhjXp04aFHkeu/B9QQ6MoSGToZoAnFEVHc4XPyVDJr7Atds+SS+uwhD6gh8mg0yn/C5GuzbaUWTrnNfR/MXN2AZQ8giecJExNxr06N3+0pc7pNenRxHXyWqsbnU5EmEkS3NM5ZYputaq3J7Dd+7BPqAeFJtEFxPqCHRQje8UvTcfkO51rDmdEEpSrG6w9SfkfcVfwlh6x3c8zuN1qeuqUUxW+0/vKKDAHL01rEbBnMztj2uEAPRoyv7QCQy5FCAU+pLG54ioMzGNzxxkaGX63/C3bh7fPM5a7Um223qB3Piy4SU5tVHwk5nkOHjbdE7zogdn+QWDdYlFe/ZcwAOYZhgpEj6KtvnKi/iGGitUYjdJP3wm+Poi2m1GFGOx7XCD7kNPBvFZYPFKrOz6aABJIfYMuCc15pnFtIvJKySHPQYS++d1OdGLQpnGTrWNbgxAQIBYWbb/y+oSpr0GNcAIiAVlIyHGnRhwphErHv8aBKbhFpV2z+e85ujeuyI8EZDhZOTBvBDTgd1O2KB/gYB3O9CJvvdqCHLm8rBslV+CxdHxIN5Qya+uCkOymiTNrY3cjZzJ+UzQF5XN2pwzpdXABTbkhFh3EsbrGkoGoA97zLq2SZb2EqLJRhfEM8DaTdDfk+um8a6gt8IExskH+lJWhpPO/IeFyO77bkmdwdPHMEVpVTeaAwtZwbyARNmy22EnPWpAgG9PclsRVX3Z4XJrWHabn9dstU3/09VDKcxgxhVgGT7id/p1oj7wQKhwopVe3kFsRVX57ksoO43Wsbn4gOum2vP/n0p/o7tGiA3aZgoGrIUeUzXSugtldhsh6Av1rZsXHuS2Iqr89xqXBtcNELZk5LHKxwWdD/WdLQNKsOGzZnoZv/mxrorXzVBYgBwcmBjN+e5LYiqvz3JZQdxutY3WsRWOh7dkgI+YuEaBgMVf0r6jNVSgogtPBGFkHX4y9yWxFVfnuS2IqqdrhohbjdaxEv6Ke6AfzYTsG9eTEeUBjALSoMxiIUGgaewAz7GVUExJPTmpK0NJ6c1JWWkEljdaxutY1a3234ZsOCL3hRKBykzL0Oe13zWuIhyof+BTZFVX57ktiKq/PclsRRZNELcbrWN1rEVjivGpVzv2D1RuvzckSo3X5t1gAAP6OLC0QEgMTXSRzssdyQRXhJ8lntfhzAJfwQjAwEM3i2aLzty8Lal8JNiEmLaWKRp9eTaiojNC8h+4huh2//ivDfomMUyCGjos/eIW9ygtbUwv8J9LiFJI6gDg5oVGgJOX9LBWetwTlbQ9o5fiJqp/l0+JSiQRnkwvwcffx8tk2NKkf/h7Q2w6TuSVswNkR1JoQI7mBiLshWnESMLZAsHtTdg9G8aM+E9w1E2OTnmuuCsoR2xXMDzaKU+nsEw4MDCb4jONCiObZnl9+Cyygdc1J9f+hucvBnv9jBwmdFnrl8ThCIyiESp88ttU4DRLvytw1geAOH0qEtL2yE1Dnmxy6GPgXu40Y36EAzOz1ilGHkCS733jTeRU/HVIuAArXW11iFnMVr0GNj+Yv7d2XXiTIUGx3IPzMVUf3Olzlddm+PeIKnZAcjwPTeiUVEtm7WFp3W/dHOZntpj1CiC9vriccQ+pYAAvaDlI2jafAO1sWtfmSMGY1ChulYxlIv5+obM9PACmgLfIadBFpl7yzvOIYFNSs8VJOzmQQScsWDQjpTr++2fkuRvs0PtlcSQU0EWWIUkk46r8R9gOWWJfvx3aTQCBHh5vqUKpn+LZpTDvOzwmQ8E82YuI/+12f4MAr4JfW3j4YRWlm0JpZ1FDAOSO55Ceo/LyH+gI9TXdVbavaJPda5MmcnSNU49SDv7vbdLZXgp6g2BHfrpfx7QvAu904iRGk9oxvTDRReyc7HdQLJmfokNtJirb9OJWYDWUTJyAruv//zp5Z7n3O2YwU8j7TZinqWNXGnriOHYDLvzvfXY2AAHXmcQaUJJC2ovsuZW1cp0zthaeEIjKIR1SZ18iRfn27V6VRy3CaZaB4IFxcskvJnze9Ha04V/t0yH72UDAh/f8kGstEw4JOYCVhs+bg50hKlrQp6i3+Xx4nMj6UsdVtPLiOM9k67cN/hf0eZcIaaFSbIryA8BSbPWwkCJSTmCQpZA1sa9MD1BQcIPvEw11QU46b0/B8tenLzBsKeeUv82e4sn5ACCiJVPMwpv5/YcZ7jlaj3gGYSO6fPxLJ2Go5UEUcgDJjVX4Af7V8oyEf9Xpn/xpn7w0EhOkyGeYtswCj/dGDQg/djPcO89j0bd5r+Z/4jabUV2pbVrufk8Jc5CASg4g8W5KBkTdPninizZCcT5PnmwvYKsm1DfGEVLeBbnaggzSy5jJ3BOfL7GAdb8qEKzUlSeIFdmDp3YWndcAlDY+PRlaWL95Oeran6+HvbsJL4JgZJPsAA4grcKrP8QI1pGUf2FH77kVF4tp0gEnAP5G1Yg3uOuhkuTzLO1PTwlLcHYVnSavFp4K0hWS5Vy3jQFwm6yxl+4IXnxgjfhV87WfN9DduPApHYKo/xsKjILy/iLhraynOD6p5KF+m8INUtzbrsNWVmNkGRDL//zOJbf8Tb18926KNxhfO/B/nQy2xiNIFIyY92idZUDnJ39B/l0sBUICkGQsOzh3Pg5jzPHzJGDP72U8zDsn9HjCff5E3mmHFsP7HTDjqtqDTtoZC/Sz50/kRe9ea5YIxetjGD7fO1hOZydJRSDadxseD9xnPNOTKPii5briltLqYTOM/ie2HokiNnkncbn/TAUDh705pVV0ZlsKhMQAxWmR7BSCO3LF1R79DltSdVA6OsNMABkwslXWolkE7J94ANGazE65TB+cHCYB9flrxFJbujTkV/GAMqWR1cfSo5lrbTKYClBRtp1lpebcxf3Kaw4uw954QDpzhOjVpuM0yPVoKxJVxwKrlc/fOp58ma7m9qc3UnoQyi9s06Y3laxDYiyCs8muSXEWw5crbZCSsGYDL3ekVyTvYyKdan56W6puwavDR9/V7yJFFy/5+MJRKIr0twbpVI5zCMtKqS2OjcMhfpZ86fw+cHMP9trKbPAYgWuNFvCsAuz63DBHhNCd8fk5PxpfFNGPHOaYOF+TohQXklSMfVmbvRqxCM40p+IkDm1H8sGJp356cQXUIoUgmYq0dkOdlHDeR6EaSm/QfhPZknv74LnFWvJ2Eo1AAcmaoOncZafnRoVhImRYSJOz6AMLpKtUwRKW4kXkklivvi65Lfma8L59e8ed9PTrZV58bpjfsJHkFuV20WbXeUT8ENKYv88sz0mwlgloj0n0zrudlrHn4jo0cTri/3RKQIyBAWvbb71ZA/rQ1fIhxzQAzlTmFuNWiq9yGV75AgYV53r1gsUN5iWcoVXVtRnUogVFwKexyz8hn9zMtsOrC08BOfTO8zHgYXEuORyan1SYnXN+HD5LTcYH8flOcI7NVMXu7K9rm01CDxAIDwxU/IW2V9EpkSO7BOp93o1YhGcaU/ESB8pGPz8ZtO1XhoRKaC+53gECoshuHdZJ+c/Dm8j5RAR0Z2KBGhc869yXjE3BlqcQJceD/SsY+WEikLHsAMATPBh8uGefjh/7UTNn2pZuvNOVHULcJiS+nWt46oPsGyhoFDCtBsXUgp3Gmh0jNBC7yjTDPGpvqjNgDKTjhamGHokfA7lwYUXOvKB3HrurMEA2LBKTvcwC4miYkXvhfda60Y7Rx6PjZZddDLpVZG3uAP4K8rLmKuBrZqdfCVWZ/EsFKWlD1X45WhmvEvB44sIzAHgsckok/+P8FMe0RhhX1POoIiQZ/qJMpM6lIg36OSTCaUszoWdcQl3pAXA11mjpe71LJO7syTff7x5gacaZY1UWvX2pponOfgHrvR48mSOoCapK7q3hyTKQSD8u+FHdqpw6W8CunGGlaqOmWhwFuFkHtzykhW4Is3kUAh7S4bjKz2oxoVX/hLPWlLD5R7O8Gpb48nfci+YU0i4jbmiaV0PlUSouacpSDUIhl1gXsJ7YJA8SRHmTZn0wxQb590XUOqO9B6lcdYiJdlNA3MEjX8gmJlvF9dP95k5p2GH3Vt/nkf8EJn7UaJCCXHzqjAOzl59Q24Q+P0j81q8Uo5oC4NX+WawiEWSlhdw8kXrGA3KvcbbwDtBDAwgAFaoX9LG28/2Dw5e0na1qtttIQXlTokyKxCAL2vtENYHS6OUwEM/f9fzBeKUAHzioYOwCTmLrKtb3MStXOAr9VJvswJ8bd5hRniOFuYNzOZtspxuCvRT2cNmVvoZcLACL8N4928OC3k20z5Fo6v6/2M7ApKOcIil5+BHrbJFiBJyYHFwYlKCOQqnfGNipzWdEHa1RF5J21jMvSW/o+EWnRuNRiQdPVNHqeRftxFUkHz8u+QdirFPQMFjcFQL3FkRYgJAhAh3C6uAplOlK1fvT693WjXqfaJtsg2CTElyJhvyRnDqRRFuPbRPv53PJI0HeAnnVkdwUKDpHcFCg73Jbu4AqcBc3z6YbkHcsMD+FmvkZiyi8+V+MWwnN88hNyAR1HoNP6xIdQi0zS6nkzfUmOIxT5UEbr+S0T0/s+BFJydvAD9yXETCKOlNOXtgpbPaczidJk/7Dye76/OxqgxXGZ7dUd2QeGPnR9LUGK4zPbqsJ5i88KnIEs7lhc0YepCViCORWd82yKW1UJWYXQpasA/Ozawfb7eFEgEhIECPdUzNaaW3T/bxnL7wVB0draDY/Qlzna65pvO8Yl2dQmOvL+bK5org+0fVM+FTVDhv7NhvK9qUcQwWBzPcPcCcPsXjdfjaH8Bzkr/8YG9WQupQ+HNopVEx0ehFzHIGGulaRQ9CsgAAL7gvX3Dd/6P6OXY23gaojOQeiPtDmAAcUI2tpOLyxqTW4Wshc975XatcLDjxGToI6JNpWRNBm2vIc51cWNu2qjtZrG3BYKSWCRQ6WF4p2/AsGQyucOhoP+OmslYfBTBLkUKhM1piWYv+Yu+2FH4O6ATd5UeB2oQITekbuibQlTcSNmk5IKJPM274uTDzJGeO/79HLNlscREu+nMyQ9VTclZ5CgB+Pg/SU2+hbdQ8gJr+WrQJV1x8p+/jFvGVRhgXohRor5R3O1qtThjQcmuAbGVokDwiKV4DCHQPhWu82fDOnWvYYaBaB1V7BXGePx7f/FxIwHkVfIteIMmlGZMOndjZg9A2LPEWlciTpLeR/AyfZs5WtrmYP9PgI0Ht+/TzztlVtf4fccZfnHEedITXHAXktodOuryWQ3HUw/m8SFQrZscj7iXUpIzqJ6vRDoCLARbWKYBpRRc2xMQ/SIAIkf2Qny1AIov78jUf8RsGpSvXGlpOLVVgKcPjUtM6aUpbOxVeErX76ZhjFZV/nqNpGPQJMiTfq5KTLI10XmiJWIJWYkftrNeRjoNoFTDb8Jtjj6xSRGyCMNikokwRqlYEBkconRPp9vnCLCSzrneSDqyoq3B5qh736DD2AMr6XGsBAzERU1BbEgYp2lPJfuVSr57WAqhVFTQk5NjjRWmk7CVBKyZN0wwkCBs7VSArG5K+9y/wg8VhNLfAXTbAWynM8spOs3Ky8yKeP+JbUQ1dMGAievRwLWXe4rJSJIjPeSSG95fvqxMD5M0TxHIYvQdeQGyBqxI3LnwVhPC1irvkQBlovGxZ1Rb1FcUje7urAJk4AAkU71f4nrVXDSbgxmDigCgQKlJnkfNP/aI6M4xaxPsqU1nVHs/Z85LKkI9DFWTL1V2a878cOetJJIzehXDb0yFWRdw8M/m2qXR7LefOenw3n4WVjZspLBOJWR/dOFxRCNdAEB+okaoBbkD+01G8f6d/9pr4AAL3FAhcKLU8uaaErt45z2PJQ5iqvDdeiXqsttbKaRORUygawURjCK2vRhZ/42oMigvdff+P+zaKu//nRHVgzRptdVunkOP9SQ5Oo7vPsEOQEbKLAJB+fmJg+RKgQhMaFZ4OJFMvkyO6RymTOa4uGDv6qTAGCf/2Io3lkGnRfkQ1AnCEzvVEBa45H+LR7UjdA2DHPdYpY0c5eN+PRvzxp3n8rrx1dupZK7KCoCD8dJAAs4nqmExgc9E3wYKB2hvDes/YzQc412g7acdYudoEkXhOxUXdU2BQ4MVwo3CDMH8j0v8oHxZA6PwJZNOZ+U/xBjPHIaI+f7CjrCPICpfacECWlDQ0D9EbBNXgsLzGRUE0TeqeYR7U5K9I+SR4ntjBDSpFsc/kMrldqJXmEKf//g16u2KFClPkT8TNDe8mWg6fswBZI5eENiQ/leKDJKXJLv59qpO28vfrdKQV9iVhLz3ETS38Cqhgjf2CwfDuI5dveFubpUdsSQM3wCWizhBYYQ/jKTq2pHp7bMgQ/P0lPur4TdEA7f/w/JibR9whcBgEVzDUpJuMq5u3CAwwcgGNyKu64TwmdmRdNuoqWq8Nv308UHwAH+YYPqL8elo/zMlQn97VmD3/4a+7C9CWZIdDHQMjDxdDj/x/YExQuj9JVm3Y08NTVg6o30alLnzvFQLI116Icl5B1mlOuj6xlzZd3gL7t8XH4BhsvKtAz5jCdWIkeu8zSwcyr3UjL9RuUp7UOOlnmXzCUIcCr7bI1bhHSxcxZE8/0PaIJh8oEF8+gX1mYa6Nk3jQsrTiOKP4HwPP3TBV2w5LaRFAyWhS8DfgESweKTekjZcIwHdPn1/YsKaacWSrJDIIEBuGksuQgHwaqjb+BuTL/Dijo0v7LIg+676ScmbgmuMfd1mmhKITvWvCyhaS/yO2696Ge5WH3d1YXL7IneKSfM5utAkWg7X468DZbnCG6kuKBnD+ljRBBO3n/cvV6SKVrN6aNuNH2mXzLU4c6N8s4pAX05cGYoCfq/kbUIJ50vXaYB30nwXAxxPTkuG/6hLgrnoxfsDX2CwhjrxfSaCzEpq0aJQMkxeQbrhoguhXt2gLhbC3E8Ula7FXutPP4iiORFsHaHKSDkuPOneKsh0NVEVSBrmZWtGErzCPzGBzrcd7GJ7iPWJMWk5RHtyLn1KcKzcNGVip36j8cD3R8YFYC0zoKBnwcgXY1GYgQ2MUANRoXa8YMYhDjTzR/puq8XZpSBq+Yal6DrKbhBSA8h+aof/k38t2Q0cFDt49dBjXN9jVBHrkEgojtnNQ1w90vStHqgXKC2ETMbELn0q1CMImYXvRdjJg4UU2txhesU175QP3s4BNUIT39xOk9HCafF5k2dL5RoRXt1C81Q75TLS18yu2u0oLwp+0s7KJKbLsl+CrBuW3vcPijH74jl6h7ixgy7MN+2MMQtSqVTWcIp4GWMMKtwPaDP63nL9ogtn5/ki98OamNr3YmMGStTmdttXiH2VHBPgMhA6W4eLyfN0qLYujtK3CVmya50CdhB5uCqUwyRPMu2IPyfabWPAU7/OEZOGxEWD+6vQBAAUpMjqTMKmbl3VXrG/M0L1j20mlCSOq9FSvQFpu47gW5ec8jUcRsc7QTxRhKj/gvd6onavllDSvBEk27PCkVpWYqScB7vkZa7mDqqjp2Z4SwATC5oHsOmK9/9qfjlGprQOTn0KirPZqzHcXCELUeCgC9uAnbNHRawECKOhPi9n27TAfl51IHY2T0gNjy+y1eEHo+zQIjpAam3soDZgUoFtVrM61rsQzShFr2AGLpRu5KwpGrN9y9QrxZ291pHtL+x3SmmzBUUkxXM+2lq1lAesL/iGBhX31TruvOKuuH0oRksVEGuClhus5NaOrF0teTkA0gbx798ScykW6c2Bd8UPuQDbEkU+nC4Okn4jMUbWhHPTjgV1ZeZroeNcVTINGlZBw/umY9JstnWCk4e8nnP1zTlY7Gy6SUVmz4AcS+I2O+ne/euZa5Ur90U4EvyNPc6FR9llQYaDMZjJTzIKreFiI3RMe4Na55gYJYaqX9+sR+4B5Oisxvr3Z07ejNImBH68aIF8UyxYBBpU/sX8J6JekYzK4iyyPSrTXi9fjGWKfgVUgQPwJvMzWfOsQ98hTGEGSfb9Bfq7V/50cGPJzU6J7EAr76PV//Mj15NSYopoup8azjxtqta3akmed6lO+tmaC5hHDKgaHEfP5Hglv/x6bBg3quSUgiqwE2v1GzVHUAA74MLHrd//TXz6TBxcrf7DrxNBCXavxhR9yIPD+UbwueKZvE8cquqPI29dIsTZBaS1CSnbx9pDi61fs036X+fJ3kjhi3S5yYWTb/ePv3rrIIl8jJpVJwwmNxSATRzUGs7oF6i/jJ+6AAU9Crr4W4t8PrlyS7vsJULwmY4ypUZF3ZajSr9E5X81oADmwp+n4hXMleUSuoK1uGIkRgz+Ankbwjn+wxgys1ooCfq/kXaY3eHPpDXOloLsy2+pBzwjlGr7UoG4UjZrJh3A9pk3PHP8fxwEGZLrWNmc2NBtZk9GxuBiqxyPhcqAQljj7GnGtkUmm+Zb6ael7mIESpQHNIL8hPJ2EECJbgbX/zCfXiCp4YDYKLirX/kE10gRIsK4As5z7L5Q9pAX+pnHPkn7WErtvbhzC/1pv5wn4i1aAjmZbYwVAm5+T5wNg3PdRJ/qM54yhk3Vh84OoVzXOLc0elzH+9BcA4qCVPQ3F9mY+OCEfEEUIXRgA6V0gKxECtt8H4GZUO5RK+iMjVWxBF+YSp2BDkupGPzcvIH/kCA2JImgB3scOah5+Hq7nd/Tf6vCVc3fA+nUHq0eoqk/dsak+vPD9fHyRO9QB8TLOIHiQtBG0RyFejzxE/JlzN0184ZiUrSl3F8pxG2lIw/6OPp4gNtVQRewjosukPgnJjz2vdj/R1GW5lo3/mAzK1H7U8/6sAqgPXidk2tmBkVk9E9E6L/tmTZNEzTyrfdNVOE/SAtlV/wnuY32H4+Or/ycYDo+lkzA4D+g72uZQZQySZIjvG/5s+LZzPMrbFKa9FSvQZHtCZVSmnXOPLtkKzLgJ2IhTPCLwu7uFr9HLwuS3dIzIBIgBkkTwAUVk9m8nnXohw9vgKGzkTDsQl5nB5Xbt2FRO/MCcHiDxB8/Owv3+t6dHQk4/rfcm0NDghYbaLkXm35uSBl+DULClxX7rGDzxm9ZNGKmq8OIQ5I8HdTMt2aALyVWiWSRI3QPXA4dpQYr+62njCZLvlzgVU+JbF9ewnYidF9IJa3cmipOU5dQzYNCR+RgZ1Yvp4g6YXpKOpkHxW7nqb1xSLbeZU+UtywBrSbxBSfqqHrJ6oTqWZLkDw2ASWUptnB8nO9/63B1K4wci5G+2kP5GCuUhiIdyIW9adg3eN1D+aWXifI2EUeVYSsVtUdeE1S/AncpTQscUA/h4+d82p7GzEyByn+bE5CLkX5ioh6RLCSMOIUtTudzgE47J4LGmeYVfLdEKzEAAB8MmtVIiWe1C6b9H8j//ggBuDGUGL4wdFO3qAZ8TjTVUebx/h3NaULlYcaPcubq2r2fsXdHYA0830iOK7R4H0tXenZOstxyR88sP40ibSvlp5L53+YPcuGtt6dA5VWdZt+6j/gKthgct8e3ceIe/59uBB8djlQdMrKiXQ1hMKbOtxBKo+OcZArulxOEmR3ywWw5Y7aBWjIlyOS/VzyAtQqXE7/rARRPTYCAe9eYGiAb51THMCjcL2V22mmNg97hGuH3PVrS1qtOHiWKOezkVgYaWp0q3imL9Y5lC5nzx39pLSn0vD+wbH5UWgj5xzA0KtD9QzttjyBlFUGSRxElkV+cn0WFzU/q3/Ofj7GqJfKoAAAASsegu+Em34EfmKgDeW4FdOaFmGzaJbeO21c0RcGxOkYl/zIw97pi5ppmJOqViZhxd1vigMdYHOMNvet1l7yLo4c7NQN8uoTowY7ge09q4D6ub8J193eu7ikBX61lEdz6J6ADpZIOkNsKb7AaCMAkPWr15oKPrcBsjW4v/jXP0YWm+dORDas7HnUp4s/CvoYUUpxEPvBoyayyxi2xMxecy8zbDsBH0tZJ2w4ibBozZgF5t4e3ymxFn+4xJpkfpAq3akOI52L9JE5MqasVXUH6Ozx/EpDPynz3lsngxoqrQ1wYdmc4/9klkojtnNQ1w90vStHqgXTue91lrpbkmzM1iAKkgpQoOtbGcAACpPncAorJ6T0cJp8XmfLRi3TZV/vcHJcNR+N/dtyI19fPq5iiutEEt+MDvqkAQtrlXqk6MpZH6XC161JSmSExC5vzLrKs+RbcPD1OtG1r1Q0o2qlMZfTv9EpQNHhgrKkjpMC8SCRMsWicw3gqsD3gdiK2erdHK2YTOTY3Kql2KdMrgb0V4RA4gPAFpZo+xYQrR3B5rcpFlNwO38zd/YBMzvnkUz8B8cyRru9bqUA/hgfwwOv0CloJtx8LY7J1OPgDinMBEorhJJtgCylcgrKXEzK+5o73NwablwM6nk/r3MJp+6OWDnWbyDcRhE07E41qZUCokm4MN12Qm4/A0vKYigQ3vxHZHBcj53CGW/LgAABvAAVn9oZWArO3G0A9li9geXUIHXm5RN8Z5x+r+aGVNHVKHbFS9bpVGixtaSQrMz/7+ZQiq7d0E+N0/Yo/GA3sbRci82gzb+tE//0RYJYvXbNOp5BW6F/Urls7w91+BiBpu0nSWCk/RfZrTH8f6Ch+fPCaY3Jl7TKqmafWBuQH3xh5OxD//jjzO90cQ87m2u5X0w+uMCRjoI/e7JeYKJiCjIQyLwAPttuKqiicyG6t0/Es55ZF4txVC2YTAuuWSCmfHlncAGTr1UWX/aOTb9NpkixOcodN0a9JzG2vtefes9HGF/esYeKC3tai4XAZC2KUUuFYq8n6ShoFT0tMaAPqQUZgAAC/Q7vM334lq3BbpDCoPUGUVkuRXciX9TpOzs7mBsTrKtXtFth2/W8DhPXBygkgWTMtKvrrucWGmixkEeM94G0HQv2hFl+70EUqeoxgv342u6bWnPgD8osjrboAHbm0dtVN4JVvjonywjTcU6Q8WDo+lG2inXGs74Inx1uqVhKvCTjjxA1rSfyu6Mw0gzVeZSKP29xDAJ/f1mt3lCOHiXQ0RLEMFmKWMsW2BnojTLn2QQww8VC6zm2boy7Z8jJpWvHeoUa/LMQNwDIxhiKhAFzvqQES4Sh2c6EkecbvxRpBr/r+VTkbA4Hh68LtInU/JEAAABhlj9aZKOh2KIgPLhf1Gnk3xximykgN2G6NRwH9+sOw6dLG+D3ALFKXpdGQejsafmA0e8qxUV/g7Aa9i5rI7JiHBghjfGuTXYS3c+SYGnH43vIhxbx/RQgH0W/yYaXeWm8vVnKHOOhOa1e+YbP1FXou1yvYBkpCTakIsViDAAmyLYnflMp+e3jnyT9H4penN484+V25ZyhSrvUSPbAF8SXVXEC6dzXH8naKZ5vcmMVIzMAWWWxIeS9B/Nz+Fz1sVDNHw3mG6KjBELm6S+RoAAALp7QXVG9A4RWibRzOWZc1k8M9FkVC9cLDcSdMGDoEh6xJ8XmWhGGN6DPqNRk9goA4Qv5cb2R8nZUxKFBvI2y/eJR7EzxmRvylmKV7DCss6lyrPJPpXJtH9d+0bcyZUcfAAAAAAA=;" vertex="1" parent="1">
          <mxGeometry x="470" y="498.39" width="70" height="64.61" as="geometry" />
        </mxCell>
        <mxCell id="rCQuYXP2aKoJk5EWpsbV-23" value="克劳德" style="rounded=0;whiteSpace=wrap;html=1;" vertex="1" parent="1">
          <mxGeometry x="270" y="503" width="120" height="60" as="geometry" />
        </mxCell>
        <mxCell id="rCQuYXP2aKoJk5EWpsbV-26" value="" style="endArrow=classic;html=1;rounded=0;exitX=1;exitY=0.5;exitDx=0;exitDy=0;entryX=-0.02;entryY=0.591;entryDx=0;entryDy=0;entryPerimeter=0;" edge="1" parent="1" source="rCQuYXP2aKoJk5EWpsbV-21" target="rCQuYXP2aKoJk5EWpsbV-16">
          <mxGeometry width="50" height="50" relative="1" as="geometry">
            <mxPoint x="600" y="360" as="sourcePoint" />
            <mxPoint x="650" y="310" as="targetPoint" />
            <Array as="points" />
          </mxGeometry>
        </mxCell>
        <mxCell id="rCQuYXP2aKoJk5EWpsbV-27" value="" style="endArrow=classic;html=1;rounded=0;entryX=-0.014;entryY=0.644;entryDx=0;entryDy=0;entryPerimeter=0;" edge="1" parent="1">
          <mxGeometry width="50" height="50" relative="1" as="geometry">
            <mxPoint x="390" y="535" as="sourcePoint" />
            <mxPoint x="469.02" y="534.99884" as="targetPoint" />
          </mxGeometry>
        </mxCell>
      </root>
    </mxGraphModel>
  </diagram>
</mxfile>
